<svg width="218" height="265" viewBox="0 0 218 265" fill="none" xmlns="http://www.w3.org/2000/svg">
<path d="M142.656 180.686H70.9719C59.1154 180.686 49.4668 171.037 49.4668 159.181V73.1604C49.4668 61.3039 59.1154 51.6553 70.9719 51.6553H142.656C154.512 51.6553 164.161 61.3039 164.161 73.1604V159.181C164.161 171.037 154.512 180.686 142.656 180.686ZM70.9719 65.992C67.0221 65.992 63.8035 69.2106 63.8035 73.1604V159.181C63.8035 163.131 67.0221 166.349 70.9719 166.349H142.656C146.605 166.349 149.824 163.131 149.824 159.181V73.1604C149.824 69.2106 146.605 65.992 142.656 65.992H70.9719ZM135.487 109.002H78.1403C77.1897 109.002 76.2781 108.625 75.6059 107.952C74.9337 107.28 74.5561 106.369 74.5561 105.418C74.5561 104.467 74.9337 103.556 75.6059 102.884C76.2781 102.212 77.1897 101.834 78.1403 101.834H135.487C136.438 101.834 137.35 102.212 138.022 102.884C138.694 103.556 139.071 104.467 139.071 105.418C139.071 106.369 138.694 107.28 138.022 107.952C137.35 108.625 136.438 109.002 135.487 109.002ZM135.487 87.4971H78.1403C77.1897 87.4971 76.2781 87.1195 75.6059 86.4474C74.9337 85.7752 74.5561 84.8635 74.5561 83.913C74.5561 82.9624 74.9337 82.0507 75.6059 81.3786C76.2781 80.7064 77.1897 80.3288 78.1403 80.3288H135.487C136.438 80.3288 137.35 80.7064 138.022 81.3786C138.694 82.0507 139.071 82.9624 139.071 83.913C139.071 84.8635 138.694 85.7752 138.022 86.4474C137.35 87.1195 136.438 87.4971 135.487 87.4971ZM135.487 130.507H78.1403C77.1897 130.507 76.2781 130.13 75.6059 129.458C74.9337 128.785 74.5561 127.874 74.5561 126.923C74.5561 125.973 74.9337 125.061 75.6059 124.389C76.2781 123.717 77.1897 123.339 78.1403 123.339H135.487C136.438 123.339 137.35 123.717 138.022 124.389C138.694 125.061 139.071 125.973 139.071 126.923C139.071 127.874 138.694 128.785 138.022 129.458C137.35 130.13 136.438 130.507 135.487 130.507ZM135.487 152.013H78.1403C77.1897 152.013 76.2781 151.635 75.6059 150.963C74.9337 150.291 74.5561 149.379 74.5561 148.428C74.5561 147.478 74.9337 146.566 75.6059 145.894C76.2781 145.222 77.1897 144.844 78.1403 144.844H135.487C136.438 144.844 137.35 145.222 138.022 145.894C138.694 146.566 139.071 147.478 139.071 148.428C139.071 149.379 138.694 150.291 138.022 150.963C137.35 151.635 136.438 152.013 135.487 152.013Z" fill="#2A2A2A"/>
<rect x="141.407" y="39.6997" width="34.8035" height="34.8035" rx="5.80058" fill="#F4F5EF" stroke="#2A2A2A" stroke-width="2.90029"/>
<path d="M157.685 54.7354H160.224V61.0839H157.685V54.7354ZM157.684 62.3537H160.223V64.8931H157.684V62.3537Z" fill="#2A2A2A"/>
<path d="M161.199 47.3709C160.757 46.5392 159.896 46.0225 158.954 46.0225C158.012 46.0225 157.151 46.5392 156.709 47.3722L147.392 64.9743C147.186 65.361 147.084 65.7947 147.096 66.2327C147.108 66.6708 147.233 67.0983 147.461 67.4731C147.685 67.8497 148.003 68.1613 148.385 68.3769C148.766 68.5925 149.197 68.7046 149.636 68.7022H168.273C169.172 68.7022 169.985 68.2425 170.449 67.4731C170.676 67.0983 170.802 66.6708 170.814 66.2327C170.826 65.7947 170.724 65.361 170.517 64.9743L161.199 47.3709ZM149.636 66.1627L158.954 48.5606L168.279 66.1627H149.636Z" fill="#2A2A2A"/>
<path d="M212.979 61.3118V37.9785C212.979 28.6959 209.291 19.7936 202.727 13.2298C196.163 6.66601 187.261 2.97852 177.978 2.97852H142.978M142.978 212.979H177.978C187.261 212.979 196.163 209.291 202.727 202.727C209.291 196.163 212.979 187.261 212.979 177.978V154.645M2.97852 154.645V177.978C2.97852 187.261 6.66601 196.163 13.2298 202.727C19.7936 209.291 28.6959 212.979 37.9785 212.979H72.9785M72.9785 2.97852H37.9785C28.6959 2.97852 19.7936 6.66601 13.2298 13.2298C6.66601 19.7936 2.97852 28.6959 2.97852 37.9785V61.3118" stroke="#C9F27A" stroke-width="5.95745" stroke-linecap="round" stroke-linejoin="round"/>
<rect x="104.979" y="242.979" width="113" height="22" rx="10" fill="#2A2A2A"/>
<path d="M115.892 256.979V250.084H117.428V256.979H115.892ZM120.042 256.979L118.037 254.037H119.723L121.822 256.979H120.042ZM117.016 254.787V253.578H118.702C118.927 253.578 119.121 253.535 119.283 253.447C119.452 253.354 119.58 253.226 119.667 253.063C119.761 252.895 119.808 252.701 119.808 252.482C119.808 252.264 119.761 252.073 119.667 251.911C119.58 251.742 119.452 251.614 119.283 251.527C119.121 251.433 118.927 251.386 118.702 251.386H117.016V250.084H118.581C119.149 250.084 119.642 250.172 120.061 250.347C120.479 250.515 120.801 250.768 121.025 251.105C121.25 251.443 121.363 251.867 121.363 252.379V252.529C121.363 253.035 121.247 253.457 121.016 253.794C120.791 254.125 120.47 254.375 120.051 254.543C119.639 254.705 119.149 254.787 118.581 254.787H117.016ZM124.91 257.156C124.473 257.156 124.086 257.082 123.748 256.932C123.417 256.782 123.14 256.582 122.915 256.332C122.696 256.076 122.528 255.792 122.409 255.48C122.296 255.161 122.24 254.837 122.24 254.506V254.318C122.24 253.975 122.296 253.647 122.409 253.335C122.528 253.016 122.696 252.732 122.915 252.482C123.133 252.233 123.405 252.036 123.73 251.892C124.061 251.742 124.435 251.667 124.854 251.667C125.403 251.667 125.865 251.792 126.24 252.042C126.621 252.286 126.911 252.607 127.111 253.007C127.311 253.4 127.411 253.831 127.411 254.3V254.805H122.868V253.953H126.502L126.015 254.346C126.015 254.04 125.971 253.778 125.884 253.56C125.797 253.341 125.665 253.176 125.491 253.063C125.322 252.945 125.11 252.885 124.854 252.885C124.591 252.885 124.37 252.945 124.189 253.063C124.008 253.182 123.87 253.357 123.776 253.588C123.683 253.813 123.636 254.09 123.636 254.421C123.636 254.727 123.68 254.996 123.767 255.227C123.855 255.452 123.992 255.627 124.179 255.751C124.367 255.876 124.61 255.939 124.91 255.939C125.185 255.939 125.409 255.886 125.584 255.78C125.759 255.673 125.878 255.542 125.94 255.386H127.317C127.242 255.73 127.095 256.036 126.877 256.304C126.658 256.573 126.384 256.782 126.053 256.932C125.722 257.082 125.341 257.156 124.91 257.156ZM128.404 256.979V251.845H129.594V254.056H129.509C129.509 253.531 129.575 253.094 129.706 252.745C129.837 252.395 130.034 252.133 130.296 251.958C130.558 251.777 130.88 251.686 131.261 251.686H131.326C131.714 251.686 132.035 251.777 132.291 251.958C132.553 252.133 132.75 252.395 132.881 252.745C133.019 253.094 133.087 253.531 133.087 254.056H132.722C132.722 253.531 132.788 253.094 132.919 252.745C133.056 252.395 133.256 252.133 133.518 251.958C133.781 251.777 134.102 251.686 134.483 251.686H134.549C134.936 251.686 135.261 251.777 135.523 251.958C135.791 252.133 135.994 252.395 136.132 252.745C136.269 253.094 136.338 253.531 136.338 254.056V256.979H134.839V253.972C134.839 253.691 134.764 253.463 134.614 253.288C134.471 253.113 134.264 253.026 133.996 253.026C133.727 253.026 133.515 253.116 133.359 253.297C133.203 253.472 133.125 253.706 133.125 254V256.979H131.617V253.972C131.617 253.691 131.542 253.463 131.392 253.288C131.248 253.113 131.045 253.026 130.783 253.026C130.508 253.026 130.293 253.116 130.137 253.297C129.981 253.472 129.903 253.706 129.903 254V256.979H128.404ZM140.116 257.156C139.667 257.156 139.267 257.088 138.917 256.95C138.568 256.807 138.271 256.613 138.027 256.37C137.79 256.126 137.609 255.848 137.484 255.536C137.359 255.218 137.297 254.883 137.297 254.534V254.318C137.297 253.962 137.359 253.625 137.484 253.307C137.615 252.982 137.803 252.698 138.046 252.454C138.296 252.211 138.596 252.02 138.945 251.883C139.295 251.739 139.685 251.667 140.116 251.667C140.56 251.667 140.953 251.739 141.297 251.883C141.646 252.02 141.943 252.211 142.186 252.454C142.43 252.698 142.617 252.982 142.748 253.307C142.88 253.625 142.945 253.962 142.945 254.318V254.534C142.945 254.883 142.883 255.218 142.758 255.536C142.633 255.848 142.449 256.126 142.205 256.37C141.968 256.613 141.674 256.807 141.325 256.95C140.975 257.088 140.572 257.156 140.116 257.156ZM140.116 255.892C140.41 255.892 140.653 255.83 140.847 255.705C141.04 255.58 141.187 255.405 141.287 255.18C141.393 254.955 141.446 254.705 141.446 254.431C141.446 254.137 141.393 253.881 141.287 253.663C141.181 253.438 141.028 253.26 140.828 253.129C140.635 252.998 140.397 252.932 140.116 252.932C139.842 252.932 139.604 252.998 139.404 253.129C139.205 253.26 139.052 253.438 138.945 253.663C138.846 253.881 138.796 254.137 138.796 254.431C138.796 254.705 138.846 254.955 138.945 255.18C139.045 255.405 139.195 255.58 139.395 255.705C139.595 255.83 139.835 255.892 140.116 255.892ZM144.865 256.979L143.329 251.845H144.874L146.317 256.979H144.865ZM145.333 256.979V255.733H146.841V256.979H145.333ZM145.886 256.979L147.132 251.845H148.574L147.244 256.979H145.886ZM151.693 257.156C151.256 257.156 150.869 257.082 150.532 256.932C150.201 256.782 149.923 256.582 149.698 256.332C149.48 256.076 149.311 255.792 149.192 255.48C149.08 255.161 149.024 254.837 149.024 254.506V254.318C149.024 253.975 149.08 253.647 149.192 253.335C149.311 253.016 149.48 252.732 149.698 252.482C149.917 252.233 150.188 252.036 150.513 251.892C150.844 251.742 151.219 251.667 151.637 251.667C152.187 251.667 152.649 251.792 153.023 252.042C153.404 252.286 153.695 252.607 153.895 253.007C154.094 253.4 154.194 253.831 154.194 254.3V254.805H149.651V253.953H153.286L152.799 254.346C152.799 254.04 152.755 253.778 152.668 253.56C152.58 253.341 152.449 253.176 152.274 253.063C152.105 252.945 151.893 252.885 151.637 252.885C151.375 252.885 151.153 252.945 150.972 253.063C150.791 253.182 150.654 253.357 150.56 253.588C150.466 253.813 150.419 254.09 150.419 254.421C150.419 254.727 150.463 254.996 150.551 255.227C150.638 255.452 150.775 255.627 150.963 255.751C151.15 255.876 151.394 255.939 151.693 255.939C151.968 255.939 152.193 255.886 152.368 255.78C152.543 255.673 152.661 255.542 152.724 255.386H154.101C154.026 255.73 153.879 256.036 153.66 256.304C153.442 256.573 153.167 256.782 152.836 256.932C152.505 257.082 152.124 257.156 151.693 257.156ZM158.587 255.021V253.691H159.814C160.052 253.691 160.255 253.644 160.423 253.55C160.598 253.457 160.732 253.325 160.826 253.157C160.92 252.982 160.966 252.782 160.966 252.557C160.966 252.32 160.92 252.117 160.826 251.948C160.732 251.774 160.598 251.643 160.423 251.555C160.255 251.461 160.052 251.415 159.814 251.415H158.587V250.084H159.739C160.32 250.084 160.817 250.181 161.229 250.375C161.647 250.568 161.966 250.843 162.184 251.199C162.409 251.555 162.521 251.983 162.521 252.482V252.632C162.521 253.119 162.409 253.544 162.184 253.906C161.966 254.262 161.647 254.537 161.229 254.73C160.817 254.924 160.32 255.021 159.739 255.021H158.587ZM157.238 256.979V250.084H158.775V256.979H157.238ZM163.467 256.979V250.141H164.975V256.979H163.467ZM162.858 251.246V250.141H164.975V251.246H162.858ZM169.457 256.979V255.461H169.204V253.813C169.204 253.55 169.141 253.354 169.017 253.222C168.892 253.091 168.692 253.026 168.417 253.026C168.28 253.026 168.099 253.029 167.874 253.035C167.649 253.041 167.418 253.051 167.181 253.063C166.943 253.076 166.728 253.088 166.534 253.101V251.836C166.678 251.824 166.847 251.811 167.04 251.799C167.234 251.786 167.434 251.777 167.64 251.771C167.846 251.764 168.039 251.761 168.22 251.761C168.745 251.761 169.185 251.836 169.541 251.986C169.903 252.136 170.178 252.364 170.365 252.67C170.553 252.969 170.646 253.357 170.646 253.831V256.979H169.457ZM167.818 257.11C167.449 257.11 167.124 257.044 166.843 256.913C166.569 256.782 166.353 256.594 166.197 256.351C166.041 256.101 165.963 255.805 165.963 255.461C165.963 255.086 166.06 254.78 166.253 254.543C166.447 254.3 166.719 254.122 167.068 254.009C167.418 253.891 167.821 253.831 168.277 253.831H169.373V254.665H168.267C168.005 254.665 167.802 254.73 167.658 254.862C167.521 254.986 167.452 255.158 167.452 255.377C167.452 255.583 167.521 255.751 167.658 255.883C167.802 256.007 168.005 256.07 168.267 256.07C168.436 256.07 168.586 256.042 168.717 255.986C168.854 255.923 168.967 255.82 169.054 255.677C169.141 255.533 169.191 255.333 169.204 255.077L169.56 255.452C169.529 255.808 169.441 256.107 169.298 256.351C169.16 256.594 168.967 256.782 168.717 256.913C168.473 257.044 168.174 257.11 167.818 257.11ZM173.941 259.021C173.691 259.021 173.435 259.011 173.173 258.992C172.911 258.974 172.67 258.949 172.452 258.917V257.653C172.67 257.684 172.911 257.709 173.173 257.728C173.442 257.753 173.685 257.765 173.904 257.765C174.31 257.765 174.637 257.719 174.887 257.625C175.143 257.531 175.331 257.388 175.449 257.194C175.568 257.007 175.627 256.763 175.627 256.463V255.442L175.899 254.843C175.886 255.299 175.796 255.689 175.627 256.014C175.465 256.338 175.237 256.588 174.943 256.763C174.65 256.932 174.3 257.016 173.894 257.016C173.545 257.016 173.226 256.954 172.939 256.829C172.658 256.698 172.418 256.516 172.218 256.285C172.018 256.054 171.865 255.786 171.759 255.48C171.653 255.168 171.599 254.83 171.599 254.468V254.253C171.599 253.891 171.656 253.553 171.768 253.241C171.881 252.929 172.043 252.657 172.255 252.426C172.467 252.195 172.72 252.017 173.014 251.892C173.307 251.761 173.632 251.696 173.988 251.696C174.4 251.696 174.756 251.786 175.056 251.967C175.362 252.148 175.602 252.414 175.777 252.763C175.952 253.113 176.046 253.535 176.058 254.028L175.852 254.084V251.845H177.042V256.37C177.042 257 176.929 257.509 176.704 257.896C176.48 258.284 176.136 258.568 175.674 258.749C175.218 258.93 174.641 259.021 173.941 259.021ZM174.363 255.751C174.594 255.751 174.803 255.701 174.99 255.602C175.178 255.495 175.324 255.346 175.431 255.152C175.543 254.958 175.599 254.724 175.599 254.449V254.178C175.599 253.909 175.54 253.684 175.421 253.503C175.309 253.316 175.159 253.176 174.972 253.082C174.784 252.982 174.584 252.932 174.372 252.932C174.122 252.932 173.901 252.991 173.707 253.11C173.513 253.229 173.364 253.394 173.257 253.606C173.151 253.819 173.098 254.069 173.098 254.356C173.098 254.649 173.151 254.902 173.257 255.115C173.37 255.321 173.52 255.48 173.707 255.592C173.901 255.698 174.119 255.751 174.363 255.751ZM178.583 256.979V251.845H180.082V256.979H178.583ZM177.899 252.951V251.845H180.082V252.951H177.899ZM179.164 251.34C178.883 251.34 178.674 251.268 178.536 251.124C178.405 250.974 178.339 250.787 178.339 250.562C178.339 250.331 178.405 250.144 178.536 250C178.674 249.85 178.883 249.775 179.164 249.775C179.445 249.775 179.651 249.85 179.782 250C179.919 250.144 179.988 250.331 179.988 250.562C179.988 250.787 179.919 250.974 179.782 251.124C179.651 251.268 179.445 251.34 179.164 251.34ZM184.568 256.979V255.461H184.315V253.813C184.315 253.55 184.253 253.354 184.128 253.222C184.003 253.091 183.803 253.026 183.529 253.026C183.391 253.026 183.21 253.029 182.985 253.035C182.76 253.041 182.529 253.051 182.292 253.063C182.055 253.076 181.839 253.088 181.646 253.101V251.836C181.789 251.824 181.958 251.811 182.152 251.799C182.345 251.786 182.545 251.777 182.751 251.771C182.957 251.764 183.151 251.761 183.332 251.761C183.856 251.761 184.297 251.836 184.653 251.986C185.015 252.136 185.29 252.364 185.477 252.67C185.664 252.969 185.758 253.357 185.758 253.831V256.979H184.568ZM182.929 257.11C182.561 257.11 182.236 257.044 181.955 256.913C181.68 256.782 181.465 256.594 181.309 256.351C181.152 256.101 181.074 255.805 181.074 255.461C181.074 255.086 181.171 254.78 181.365 254.543C181.558 254.3 181.83 254.122 182.18 254.009C182.529 253.891 182.932 253.831 183.388 253.831H184.484V254.665H183.379C183.116 254.665 182.913 254.73 182.77 254.862C182.632 254.986 182.564 255.158 182.564 255.377C182.564 255.583 182.632 255.751 182.77 255.883C182.913 256.007 183.116 256.07 183.379 256.07C183.547 256.07 183.697 256.042 183.828 255.986C183.966 255.923 184.078 255.82 184.165 255.677C184.253 255.533 184.303 255.333 184.315 255.077L184.671 255.452C184.64 255.808 184.553 256.107 184.409 256.351C184.272 256.594 184.078 256.782 183.828 256.913C183.585 257.044 183.285 257.11 182.929 257.11ZM187.029 256.979V251.845H188.219V254.047H188.191C188.191 253.322 188.344 252.763 188.65 252.37C188.962 251.977 189.412 251.78 189.999 251.78H190.195V253.073H189.821C189.409 253.073 189.09 253.185 188.865 253.41C188.641 253.628 188.528 253.947 188.528 254.365V256.979H187.029ZM191.215 256.979V251.845H192.714V256.979H191.215ZM190.532 252.951V251.845H192.714V252.951H190.532ZM191.796 251.34C191.515 251.34 191.306 251.268 191.169 251.124C191.038 250.974 190.972 250.787 190.972 250.562C190.972 250.331 191.038 250.144 191.169 250C191.306 249.85 191.515 249.775 191.796 249.775C192.077 249.775 192.283 249.85 192.414 250C192.552 250.144 192.621 250.331 192.621 250.562C192.621 250.787 192.552 250.974 192.414 251.124C192.283 251.268 192.077 251.34 191.796 251.34ZM196.049 257.138C195.318 257.138 194.747 256.988 194.335 256.688C193.922 256.388 193.704 255.967 193.679 255.424H195.009C195.034 255.586 195.131 255.733 195.299 255.864C195.474 255.989 195.733 256.051 196.077 256.051C196.339 256.051 196.554 256.007 196.723 255.92C196.898 255.826 196.985 255.695 196.985 255.527C196.985 255.377 196.92 255.258 196.789 255.171C196.658 255.077 196.423 255.011 196.086 254.974L195.683 254.937C195.065 254.874 194.6 254.702 194.288 254.421C193.982 254.14 193.829 253.781 193.829 253.344C193.829 252.982 193.919 252.679 194.1 252.436C194.281 252.192 194.531 252.008 194.85 251.883C195.174 251.758 195.543 251.696 195.955 251.696C196.617 251.696 197.151 251.842 197.557 252.136C197.963 252.423 198.175 252.841 198.194 253.391H196.864C196.839 253.222 196.751 253.082 196.601 252.969C196.451 252.851 196.23 252.792 195.936 252.792C195.705 252.792 195.521 252.835 195.384 252.923C195.246 253.01 195.178 253.129 195.178 253.279C195.178 253.422 195.237 253.531 195.356 253.606C195.474 253.681 195.668 253.734 195.936 253.766L196.339 253.803C196.97 253.872 197.46 254.047 197.81 254.328C198.159 254.609 198.334 254.986 198.334 255.461C198.334 255.805 198.241 256.104 198.053 256.36C197.866 256.61 197.6 256.804 197.257 256.941C196.914 257.072 196.511 257.138 196.049 257.138ZM199.305 256.979V251.845H200.495V254.056H200.41C200.41 253.531 200.476 253.094 200.607 252.745C200.738 252.395 200.935 252.133 201.197 251.958C201.46 251.777 201.781 251.686 202.162 251.686H202.228C202.615 251.686 202.936 251.777 203.192 251.958C203.455 252.133 203.651 252.395 203.783 252.745C203.92 253.094 203.989 253.531 203.989 254.056H203.623C203.623 253.531 203.689 253.094 203.82 252.745C203.957 252.395 204.157 252.133 204.42 251.958C204.682 251.777 205.003 251.686 205.384 251.686H205.45C205.837 251.686 206.162 251.777 206.424 251.958C206.693 252.133 206.896 252.395 207.033 252.745C207.17 253.094 207.239 253.531 207.239 254.056V256.979H205.74V253.972C205.74 253.691 205.665 253.463 205.515 253.288C205.372 253.113 205.166 253.026 204.897 253.026C204.629 253.026 204.416 253.116 204.26 253.297C204.104 253.472 204.026 253.706 204.026 254V256.979H202.518V253.972C202.518 253.691 202.443 253.463 202.293 253.288C202.15 253.113 201.947 253.026 201.684 253.026C201.41 253.026 201.194 253.116 201.038 253.297C200.882 253.472 200.804 253.706 200.804 254V256.979H199.305Z" fill="#F4F5EF"/>
</svg>
