<svg width="70" height="70" viewBox="0 0 70 70" fill="none" xmlns="http://www.w3.org/2000/svg">
<path d="M64.2807 37.3097C63.7095 36.6711 63.3945 35.8501 63.3945 35C63.3945 34.1499 63.7095 33.3289 64.2807 32.6903L68.8407 27.651C69.3432 27.1004 69.6552 26.4076 69.732 25.672C69.8088 24.9365 69.6465 24.1959 69.2682 23.5566L62.1431 11.4482C61.7687 10.8096 61.1986 10.3034 60.5141 10.0018C59.8297 9.70018 59.0657 9.6185 58.3312 9.76843L51.6336 11.0983C50.7814 11.2712 49.8942 11.1318 49.1394 10.7063C48.3847 10.2808 47.8145 9.59865 47.5367 8.78857L45.3635 2.38444C45.1245 1.68936 44.6692 1.08564 44.0619 0.658617C43.4545 0.231595 42.726 0.0028654 41.9791 0.00475921H27.7289C26.952 -0.0350725 26.1832 0.175978 25.54 0.605677C24.8967 1.03538 24.4142 1.6601 24.1664 2.38444L22.1713 8.78857C21.8935 9.59865 21.3234 10.2808 20.5686 10.7063C19.8138 11.1318 18.9266 11.2712 18.0744 11.0983L11.1987 9.76843C10.5024 9.67178 9.79255 9.77971 9.15859 10.0786C8.52463 10.3775 7.9949 10.8541 7.63615 11.4482L0.511051 23.5566C0.123303 24.1887 -0.0510404 24.9252 0.0129447 25.6606C0.0769297 26.3959 0.375967 27.0926 0.867305 27.651L5.39174 32.6903C5.96288 33.3289 6.27787 34.1499 6.27787 35C6.27787 35.8501 5.96288 36.6711 5.39174 37.3097L0.867305 42.349C0.375967 42.9074 0.0769297 43.6041 0.0129447 44.3394C-0.0510404 45.0748 0.123303 45.8113 0.511051 46.4434L7.63615 58.5518C8.01056 59.1904 8.58064 59.6966 9.26513 59.9982C9.94961 60.2998 10.7136 60.3815 11.4481 60.2316L18.1457 58.9017C18.9979 58.7288 19.8851 58.8682 20.6398 59.2937C21.3946 59.7192 21.9647 60.4014 22.2426 61.2114L24.4157 67.6156C24.6636 68.3399 25.146 68.9646 25.7893 69.3943C26.4326 69.824 27.2014 70.0351 27.9783 69.9952H42.2285C42.9753 69.9971 43.7039 69.7684 44.3112 69.3414C44.9186 68.9144 45.3739 68.3106 45.6129 67.6156L47.7861 61.2114C48.0639 60.4014 48.634 59.7192 49.3888 59.2937C50.1436 58.8682 51.0308 58.7288 51.883 58.9017L58.5806 60.2316C59.3151 60.3815 60.079 60.2998 60.7635 59.9982C61.448 59.6966 62.0181 59.1904 62.3925 58.5518L69.5176 46.4434C69.8958 45.8041 70.0582 45.0635 69.9814 44.328C69.9046 43.5924 69.5926 42.8996 69.0901 42.349L64.2807 37.3097ZM58.9725 41.9991L61.8225 45.1486L57.2624 52.9176L53.0586 52.0777C50.4928 51.5625 47.8237 51.9906 45.558 53.2808C43.2923 54.571 41.5877 56.6335 40.7678 59.0767L39.4141 62.9962H30.2939L29.0114 59.0067C28.1915 56.5635 26.4869 54.501 24.2212 53.2108C21.9555 51.9206 19.2865 51.4925 16.7206 52.0077L12.5168 52.8476L7.88552 45.1136L10.7356 41.9641C12.4882 40.0392 13.4571 37.5474 13.4571 34.965C13.4571 32.3826 12.4882 29.8908 10.7356 27.966L7.88552 24.8164L12.4456 17.1174L16.6494 17.9573C19.2152 18.4725 21.8843 18.0444 24.15 16.7542C26.4157 15.464 28.1203 13.4015 28.9402 10.9583L30.2939 7.00381H39.4141L40.7678 10.9933C41.5877 13.4365 43.2923 15.499 45.558 16.7892C47.8237 18.0794 50.4928 18.5075 53.0586 17.9923L57.2624 17.1524L61.8225 24.9214L58.9725 28.0709C57.2395 29.9913 56.2826 32.4687 56.2826 35.035C56.2826 37.6013 57.2395 40.0787 58.9725 41.9991ZM34.854 21.0019C32.0356 21.0019 29.2805 21.8229 26.937 23.361C24.5936 24.8991 22.7671 27.0853 21.6885 29.6432C20.61 32.201 20.3278 35.0155 20.8776 37.7309C21.4275 40.4463 22.7847 42.9405 24.7776 44.8982C26.7705 46.8558 29.3097 48.189 32.0739 48.7291C34.8382 49.2692 37.7034 48.992 40.3073 47.9326C42.9112 46.8731 45.1368 45.0789 46.7026 42.7769C48.2684 40.4749 49.1042 37.7686 49.1042 35C49.1042 31.2875 47.6028 27.727 44.9304 25.1019C42.258 22.4767 38.6334 21.0019 34.854 21.0019ZM34.854 41.9991C33.4448 41.9991 32.0672 41.5886 30.8955 40.8195C29.7238 40.0504 28.8106 38.9573 28.2713 37.6784C27.732 36.3995 27.5909 34.9922 27.8658 33.6346C28.1407 32.2769 28.8193 31.0298 29.8158 30.0509C30.8123 29.0721 32.0818 28.4055 33.464 28.1354C34.8461 27.8654 36.2787 28.004 37.5807 28.5337C38.8826 29.0635 39.9954 29.9606 40.7783 31.1115C41.5612 32.2625 41.9791 33.6157 41.9791 35C41.9791 36.8563 41.2284 38.6365 39.8922 39.9491C38.556 41.2617 36.7437 41.9991 34.854 41.9991Z" fill="#8D8D8D" fill-opacity="0.2"/>
</svg>
