<svg width="34" height="65" viewBox="0 0 34 65" fill="none" xmlns="http://www.w3.org/2000/svg">
<path d="M6.24421 3.84756C4.98343 1.47454 2.52708 0 -0.161144 0C-2.84936 0 -5.30572 1.47454 -6.5665 3.85118L-33.1516 54.076C-33.7402 55.1793 -34.0316 56.4168 -33.9973 57.6668C-33.963 58.9169 -33.6041 60.1365 -32.956 61.2059C-32.3169 62.2807 -31.408 63.1697 -30.3194 63.7849C-29.2308 64.4 -28.0003 64.72 -26.7499 64.7129H26.4276C28.9926 64.7129 31.3149 63.4014 32.6373 61.2059C33.2855 60.1365 33.6443 58.9169 33.6786 57.6668C33.7129 56.4168 33.4215 55.1793 32.833 54.076L6.24421 3.84756ZM-26.7499 57.4671L-0.161144 7.24226L26.4457 57.4671H-26.7499Z" fill="#8D8D8D" fill-opacity="0.2"/>
</svg>
