<svg width="96" height="96" viewBox="0 0 96 96" fill="none" xmlns="http://www.w3.org/2000/svg">
<path fill-rule="evenodd" clip-rule="evenodd" d="M95.7612 47.8806C73.6853 39.7118 56.0494 22.0758 47.8806 0C39.7118 22.0758 22.0758 39.7118 0 47.8806C22.0758 56.0494 39.7118 73.6853 47.8806 95.7612C56.0494 73.6853 73.6853 56.0494 95.7612 47.8806ZM62.0831 37.8083C65.1008 38.02 67.4406 40.5298 67.4406 43.5549V52.3735C67.4406 55.3986 65.1008 57.9084 62.0831 58.1202L48.2179 59.0931L33.9943 58.095C31.1279 57.8938 28.8481 55.6113 28.6504 52.7447L28.3207 47.9642L28.6504 43.1837C28.8481 40.3171 31.1279 38.0346 33.9943 37.8334L48.2179 36.8353L62.0831 37.8083Z" fill="#2A2A2A"/>
<circle cx="38.941" cy="47.7291" r="3.48498" fill="#2A2A2A"/>
<circle cx="56.5172" cy="47.7291" r="3.48498" fill="#2A2A2A"/>
</svg>
