<svg width="207" height="221" viewBox="0 0 207 221" fill="none" xmlns="http://www.w3.org/2000/svg">
<path d="M47.2744 35.4406C51.8542 27.8076 68.8912 12.5415 100.4 12.5415C131.91 12.5415 147.115 29.6395 150.778 38.1885C153.221 41.6997 158.015 51.012 157.648 60.1717C157.282 69.3313 165.434 80.7809 169.556 85.3607C175.662 90.3985 185.127 101.665 174.136 106.428C170.93 106.886 165.251 109.451 168.182 116.046C170.064 120.28 169.025 122.853 167.394 124.274C166.698 124.88 166.498 126.874 167.012 127.641C167.997 129.108 168.301 131.33 166.35 134.365C165.129 135.891 162.869 139.677 163.602 142.609C164.317 145.469 165.869 152.236 160.634 157.028C157.148 160.219 152.033 160.47 147.308 160.47H138.513C132.061 160.47 125.144 160.852 120.485 165.315C116.266 169.357 112.822 176.014 114.14 186.117C114.598 191.155 114.14 210.573 128.795 219" stroke="#2A2A2A" stroke-width="4.01493" stroke-linecap="round"/>
<path d="M1.92969 139.658V70.2916C1.92969 51.4498 17.2018 36.1777 36.0435 36.1777H96.1479C112.944 36.1777 126.567 49.8001 126.567 66.5965V93.1949C126.567 114.487 109.307 131.747 88.015 131.747H38.7448C27.3896 131.747 17.0378 138.268 12.1368 148.514C10.8344 151.235 7.13938 151.65 5.26775 149.276C3.10669 146.536 1.92969 143.14 1.92969 139.648V139.658Z" fill="#F4F5EF" stroke="#2A2A2A" stroke-width="3.85903" stroke-miterlimit="10"/>
<path d="M24.5918 63.7705H94.5463" stroke="#2A2A2A" stroke-width="5.78854" stroke-miterlimit="10" stroke-linecap="round"/>
<path d="M24.5918 87.7158H105.873" stroke="#2A2A2A" stroke-width="5.78854" stroke-miterlimit="10" stroke-linecap="round"/>
<path d="M24.5918 111.662H70.4081" stroke="#2A2A2A" stroke-width="5.78854" stroke-miterlimit="10" stroke-linecap="round"/>
<path d="M185.234 0C188.93 9.98836 196.806 17.8636 206.794 21.5596C196.806 25.2556 188.93 33.1308 185.234 43.1192C181.538 33.1308 173.663 25.2556 163.675 21.5596C173.663 17.8636 181.538 9.98836 185.234 0Z" fill="#2A2A2A"/>
</svg>
